<!DOCTYPE svg PUBLIC "-//W3C//DTD SVG 1.1//EN" "http://www.w3.org/Graphics/SVG/1.1/DTD/svg11.dtd">
<!-- Uploaded to: SVG Repo, www.svgrepo.com, Transformed by: SVG Repo Mixer Tools -->
<svg width="800px" height="800px" viewBox="0 0 24 24" data-name="Layer 1" id="Layer_1" xmlns="http://www.w3.org/2000/svg" fill="#000000">
<g id="SVGRepo_bgCarrier" stroke-width="0"/>
<g id="SVGRepo_tracerCarrier" stroke-linecap="round" stroke-linejoin="round"/>
<g id="SVGRepo_iconCarrier">
<title/>
<path d="M17.3381,11.8108c0,1.6154-.0563,3.2689-1.1041,4.3381A5.92793,5.92793,0,1,1,7.8428,7.7741c1.0699-1.0526,2.5703-.9616,4.1898-.9616C15.3065,6.8125,17.3381,8.5369,17.3381,11.8108Z" style="fill:#ee0979;fill-rule:evenodd"/>
<path d="M12,6.072A5.90909,5.90909,0,0,0,7.8083,7.8083l8.3834,8.3834A5.928,5.928,0,0,0,12,6.072Z" style="fill:#00CED1;fill-rule:evenodd"/>
<ellipse cx="16.5" cy="5" rx="1.5" ry="3" style="fill:#00CED1"/>
<ellipse cx="19" cy="7.5" rx="3" ry="1.5" style="fill:#00CED1"/>
<ellipse cx="7.5" cy="19" rx="1.5" ry="3" style="fill:#ee0979"/>
<ellipse cx="5" cy="16.5" rx="3" ry="1.5" style="fill:#ee0979"/>
<circle cx="10" cy="9.9398" r="2" style="fill:#fff"/>
</g>
</svg>